<svg width="224" height="196" viewBox="0 0 224 196" fill="none" xmlns="http://www.w3.org/2000/svg">
<g clip-path="url(#clip0_35_857)">
<path d="M74.2873 190.11C74.2873 190.11 57.3683 172.393 61.6022 167.821C65.5763 163.534 78.0602 183.501 78.0602 183.501C78.0602 183.501 70.9589 163.953 75.4108 162.623C79.7873 161.318 81.9127 181.796 81.9127 181.796C81.9127 181.796 82.5541 169.941 86.4066 170.316C90.1794 170.683 86.2473 182.952 86.2473 182.952C86.2473 182.952 94.3044 166 98.3371 168.789C102.546 171.699 89.517 190.115 89.517 190.115H74.2915L74.2873 190.11Z" fill="#A2D800"/>
<path d="M145.125 190.11C145.125 190.11 136.967 180.606 139.285 178.448C142.022 175.899 146.458 186.887 146.458 186.887C146.458 186.887 143.573 178.236 146.495 177.701C148.835 177.277 149.786 186.459 149.786 186.459C149.786 186.459 150.23 181.136 152.226 181.931C153.555 182.456 152.079 186.459 152.079 186.459C152.079 186.459 155.11 181.136 156.85 183.077C158.078 184.45 154.108 190.105 154.108 190.105H145.129L145.125 190.11Z" fill="black"/>
<path d="M171.656 6.84509H47.9906C44.0895 6.84509 40.927 10.4792 40.927 14.9621V110.251C40.927 114.734 44.0895 118.368 47.9906 118.368H171.656C175.557 118.368 178.72 114.734 178.72 110.251V14.9621C178.72 10.4792 175.557 6.84509 171.656 6.84509Z" fill="white" stroke="black" stroke-width="0.628009" stroke-miterlimit="10"/>
<path d="M178.72 14.9572V19.2205H40.927V14.9572C40.927 10.4773 44.0878 6.84509 47.9906 6.84509H171.656C175.559 6.84509 178.72 10.4773 178.72 14.9572Z" fill="black" stroke="black" stroke-width="0.628009" stroke-miterlimit="10"/>
<path opacity="0.3" d="M168.143 25.1553H78.5966C76.2258 25.1553 74.304 27.3638 74.304 30.0881V107.414C74.304 110.138 76.2258 112.346 78.5966 112.346H168.143C170.514 112.346 172.436 110.138 172.436 107.414V30.0881C172.436 27.3638 170.514 25.1553 168.143 25.1553Z" fill="#455CF3"/>
<path opacity="0.3" d="M70.0293 42.6521C71.6169 35.0297 67.5266 27.3715 60.8933 25.5472C54.2601 23.7228 47.5958 28.4231 46.0082 36.0455C44.4206 43.668 48.5108 51.3261 55.1441 53.1505C61.7773 54.9748 68.4416 50.2745 70.0293 42.6521Z" fill="#455CF3"/>
<path d="M152.62 13.1602C152.62 14.774 151.479 16.0843 150.075 16.0843C148.671 16.0843 147.531 14.774 147.531 13.1602C147.531 11.5465 148.671 10.2362 150.075 10.2362C151.479 10.2362 152.62 11.5465 152.62 13.1602Z" fill="#A2D800"/>
<path d="M160.538 16.0843C161.944 16.0843 163.083 14.7751 163.083 13.1602C163.083 11.5453 161.944 10.2362 160.538 10.2362C159.133 10.2362 157.994 11.5453 157.994 13.1602C157.994 14.7751 159.133 16.0843 160.538 16.0843Z" fill="#455CF3"/>
<path d="M171.002 16.0843C172.407 16.0843 173.546 14.7751 173.546 13.1602C173.546 11.5453 172.407 10.2362 171.002 10.2362C169.597 10.2362 168.457 11.5453 168.457 13.1602C168.457 14.7751 169.597 16.0843 171.002 16.0843Z" fill="#BD4C2C"/>
<path d="M132.59 50.4891C132.096 49.3137 130.687 48.5815 129.731 48.4611C130.218 47.8204 130.457 46.8955 130.205 46.0958C129.954 45.2962 129.132 44.747 128.436 45.0312C128.906 43.6391 127.891 42.059 126.659 41.5918C125.464 41.139 124.102 41.534 123.15 42.4637C122.626 42.507 120.777 41.5195 120.014 41.481C119.394 41.4473 118.79 41.7556 118.35 42.2565C117.214 42.0639 115.902 42.2854 114.816 43.6728C114.472 44.1112 114.183 44.7518 113.936 45.4792C113.529 45.7008 113.16 45.9995 112.888 46.409C112.443 47.0737 112.322 48.0709 112.749 48.7501C111.58 49.0536 110.85 50.7252 111.345 51.9825C110.536 52.2619 110.033 53.2927 110.075 54.261C110.117 55.2341 110.612 56.1204 111.249 56.7563C111.886 57.3922 112.666 57.8161 113.433 58.2159C112.758 58.741 112.624 59.9116 113.018 60.7305C113.416 61.5494 114.229 62.0167 115.038 62.1082C114.594 63.1005 114.623 64.3482 115.114 65.3116C115.692 66.4485 116.803 67.0844 117.901 67.4456C119.49 67.9707 121.167 68.0382 122.823 67.9996C122.886 67.9996 122.953 67.9948 123.016 67.99C123.917 68.9534 125.087 70.4949 125.066 71.969C125.921 70.3456 126.726 68.8378 127.405 67.5564C127.702 67.5035 128.004 67.4553 128.302 67.3927C129.161 67.2096 130.046 66.9639 130.712 66.3184C131.207 65.8367 131.534 65.1767 131.827 64.5168C132.247 63.5726 132.62 62.5707 132.687 61.5109C132.75 60.4511 132.46 59.3142 131.744 58.6446C132.129 58.2544 132.297 57.6041 132.163 57.0357C132.024 56.4673 131.593 56.0096 131.085 55.9037C131.823 55.4797 133.911 53.6588 132.582 50.4939L132.59 50.4891Z" fill="black"/>
<path d="M127.275 62.4645C127.275 62.4645 126.772 61.5637 126.206 60.1715C126.08 59.868 125.958 59.5453 125.833 59.1985C125.548 58.4133 125.275 57.5317 125.061 56.6068L120.588 57.7629C120.588 57.7629 121.1 59.184 121.498 60.7929C121.561 61.0483 121.888 64.4396 121.888 64.4396C121.888 64.4396 121.733 64.6756 121.586 64.8105C121.117 65.2489 122.089 66.8963 122.865 67.7056C123.971 68.8618 125.501 69.223 126.285 68.5727C128.83 66.4772 127.836 62.5127 127.836 62.5127L127.27 62.4597L127.275 62.4645Z" fill="#E69183"/>
<path d="M125.757 59.9451C125.531 60.5617 125.07 61.6359 124.093 62.0406C123.556 62.2622 122.123 62.4645 121.666 62.2284C121.1 61.9394 121.532 60.9326 121.498 60.7929L125.485 58.4951C125.61 58.8371 125.753 59.4104 125.753 59.9403L125.757 59.9451Z" fill="black"/>
<path d="M117.394 54.3427C117.394 54.3427 116.191 54.4053 116.078 55.3446C115.96 56.2792 116.954 57.8592 117.457 58.182C117.964 58.5047 118.723 57.8592 118.723 57.8592" fill="#E69183"/>
<path d="M126.361 50.7829C126.361 50.7829 127.4 50.0844 127.941 50.7973C128.482 51.5103 128.398 53.4564 128.126 54.0393C127.853 54.627 126.914 54.5596 126.914 54.5596" fill="#E69183"/>
<path d="M123.468 61.2602C120.052 61.4095 117.859 57.0885 116.719 53.9284C117.017 53.7695 117.277 53.4804 117.432 53.1384C117.704 52.5363 117.713 51.8281 117.662 51.1537C118.061 51.0574 118.388 50.6768 118.513 50.2336C118.71 49.54 118.463 48.827 118.329 48.5621C118.824 48.1767 119.151 47.4011 119.146 46.8375C119.473 47.8106 120.232 48.5862 121.112 48.8415C121.993 49.0968 122.978 48.8415 123.674 48.1623C124.248 48.8848 125.095 49.3087 125.95 49.2847C126.231 49.2847 126.516 49.222 126.78 49.1064C127.166 52.1894 127.887 61.0579 123.464 61.2554L123.468 61.2602Z" fill="#E69183"/>
<path d="M161.201 43.6582C160.92 43.7401 160.593 43.9328 160.25 44.1784C160.786 43.5281 161.273 42.9452 161.47 42.6996C161.977 42.0685 161.893 41.1725 160.757 41.6735C160.505 41.7843 160.225 41.9818 159.935 42.2275C160.459 41.5434 160.908 40.9798 161.076 40.7679C161.583 40.1368 161.545 39.1445 160.405 39.6455C159.801 39.9152 158.435 41.1388 157.579 42.16C157.923 41.6205 158.556 40.8498 158.715 40.6571C159.265 39.9875 158.975 39.0819 157.898 39.7418C156.766 40.4307 155.244 42.6996 154.657 43.769C154.611 43.2102 154.641 42.4587 154.456 41.8614C153.949 40.2332 152.561 40.3199 152.687 41.0569C152.813 41.7891 153.282 44.1495 152.951 45.4935C152.557 47.0784 152.746 48.4754 152.863 48.9764L144.45 59.3382L132.662 61.3806L130.478 66.1738V66.1834L127.849 71.9544L130.889 71.9158L133.45 71.8773C133.45 71.8773 133.391 71.0054 133.613 70.4129C133.701 70.172 133.836 69.9842 134.037 69.9071C137.143 68.8088 146.6 66.3713 147.644 65.7836C149.514 63.8952 154.955 52.1557 155.559 50.8406C156.867 50.5371 158.745 47.695 159.231 47.0832C159.814 46.3992 161.273 44.9829 161.704 44.559C162.17 44.1014 162.178 43.3595 161.205 43.6437L161.201 43.6582Z" fill="#E69183"/>
<path d="M160.199 44.2269C160.199 44.2269 159.172 45.1422 158.472 45.9322" stroke="black" stroke-width="0.138162" stroke-linecap="round" stroke-linejoin="round"/>
<path d="M159.906 42.2806C159.906 42.2806 158.606 43.4753 157.445 45.0746" stroke="black" stroke-width="0.138162" stroke-linecap="round" stroke-linejoin="round"/>
<path d="M157.579 42.1603C157.579 42.1603 156.77 43.1815 156.338 43.774" stroke="black" stroke-width="0.138162" stroke-linecap="round" stroke-linejoin="round"/>
<path d="M120.589 71.9641L119.922 78.0097L119.742 78.1205L116.346 80.2015C116.271 79.9655 116.078 79.8161 115.654 79.9221C115.407 79.9847 114.933 80.1822 114.292 80.4568C111.789 81.5359 103.573 85.4812 102.915 84.9031C99.8673 82.2199 93.2019 68.4765 93.2019 68.4765L95.5788 66.829L106.264 76.8054L117 68.3705L118.664 70.0324L120.589 71.9641Z" fill="#E69183"/>
<path d="M112.117 92.2782C112.117 92.2782 110.339 95.7611 118.317 96.5559L118.929 92.2782L115.772 90.3466H113.81L112.112 92.2782H112.117Z" fill="black"/>
<path d="M135.491 101.807C135.491 101.807 129.472 104.827 116.208 101.773C116.208 101.773 116.812 99.4461 117.499 95.5297C117.679 94.494 117.868 93.3523 118.048 92.1047L122.001 90.9534L134.087 87.4417L134.636 93.0922L135.487 101.807H135.491Z" fill="#E69183"/>
<path d="M134.64 93.0923C133.508 93.9257 130.729 95.8044 128.025 96.1753C123.271 96.8305 118.065 95.5828 117.499 95.5298C117.679 94.4941 117.868 93.3525 118.048 92.1048L122.001 90.9535L134.636 93.0923H134.64Z" fill="black"/>
<path d="M136.258 92.2156C135.533 94.8072 134.64 96.3391 127.078 95.737C123.645 95.4672 119.285 93.3284 116.208 92.1385C113.139 90.9535 112.112 92.2734 112.112 92.2734C114.187 89.3253 115.164 84.8019 115.613 80.6495C119.05 75.5963 116.996 68.3657 116.996 68.3657C119.595 65.9812 121.586 64.8058 121.586 64.8058C121.586 64.8058 123.276 68.804 125.43 68.6258C127.581 68.4476 127.841 62.508 127.841 62.508C130.561 62.0311 132.653 61.3807 132.653 61.3807C132.653 61.3807 132.653 61.3807 132.653 61.3904C132.578 61.6505 130.788 67.9851 132.746 70.6008C132.997 70.9381 133.311 71.2126 133.697 71.4053C133.697 71.4053 137.814 86.671 136.258 92.2108V92.2156Z" fill="white"/>
<path d="M135.231 99.1185C137.126 103.825 138.447 112.347 138.447 112.347H112.867C112.863 110.665 112.955 107.746 113.789 105.14C114.954 101.513 116.975 98.3092 116.975 98.3092C116.975 98.3092 124.969 100.968 135.227 99.1185H135.231Z" fill="#242847"/>
<path d="M92.1708 62.8163C92.1708 62.8163 90.9928 60.6148 90.8042 60.2005C90.5568 59.6514 90.7622 58.5097 91.3994 58.7843C92.3049 59.1697 93.6422 61.6216 93.6422 61.6216L92.1708 62.8163Z" fill="#E69183"/>
<path d="M94.9923 59.7139C94.9923 59.7139 91.6093 63.5002 88.2976 64.2372C87.9706 64.3095 87.7778 64.7045 87.9035 65.0561C88.3772 66.3905 89.3833 69.1556 89.6726 69.5987C90.0582 70.1864 95.6253 65.2006 96.9416 61.4962L94.9923 59.7139Z" fill="white"/>
<path d="M100.915 62.4354C101.196 62.1223 101.444 61.7562 101.611 61.3468C101.909 60.6242 102.005 59.7764 101.548 58.8755C100.983 57.7531 98.1194 54.1884 97.2936 51.5679C96.4677 48.9473 96.7989 47.3287 96.6061 46.0811C96.409 44.8286 95.7635 44.371 95.7635 44.371L90.8378 49.8626L90.0455 50.7489L85.1199 56.2405C85.1199 56.2405 85.5014 56.9968 86.5829 57.2618C87.6644 57.5219 89.0772 57.1895 91.3367 58.2204C93.592 59.2465 96.6061 62.6426 97.5661 63.3266C98.3374 63.8758 99.0794 63.7987 99.7166 63.476C100.077 63.2929 100.4 63.0231 100.681 62.71L100.92 62.4451L100.915 62.4354Z" fill="#7050D9"/>
<path d="M84.7048 57.0886C84.4826 56.8237 84.4868 56.3997 84.7174 56.1444L95.6922 43.9088C95.9227 43.6535 96.2916 43.6583 96.5138 43.9232C96.736 44.1882 96.7318 44.6121 96.5012 44.8674L85.5265 57.1031C85.2959 57.3584 84.927 57.3535 84.7048 57.0886Z" fill="#242847"/>
<path d="M96.3879 67.5853C96.3879 67.5853 95.8262 63.7219 95.0842 62.8259C94.3422 61.9251 94.2542 61.5686 94.0614 61.5879C93.8727 61.612 93.5583 62.0889 93.6505 62.8115C93.705 63.2354 94.1536 64.0928 94.1536 64.0928C94.1536 64.0928 94.2584 64.6805 94.2584 65.7355C93.9649 66.0968 91.9653 68.12 91.9653 68.12C91.9653 68.12 92.2881 69.1172 93.944 69.9698" fill="#E69183"/>
<path d="M91.7306 61.6793C91.303 61.1831 90.5191 61.607 90.4814 62.2622C89.9951 62.0309 89.337 62.5464 89.4544 63.2015C88.9723 63.1389 88.3141 63.7025 88.6956 64.4106C88.6956 64.4106 89.446 65.4704 89.6262 65.6342C90.0203 65.9955 90.5233 65.8221 90.5569 65.4415C90.5736 65.2392 90.4604 64.8779 90.3179 64.5118C90.4898 64.7334 90.6365 64.9165 90.6952 64.9743C91.0892 65.3355 91.8019 65.114 91.7642 64.6419C91.7516 64.4925 91.6971 64.3047 91.6174 64.1072C91.6678 64.1698 91.7097 64.2131 91.7348 64.2372C92.1289 64.5985 92.8415 64.3769 92.8038 63.9048C92.7535 63.2593 91.9067 61.8913 91.7264 61.6841L91.7306 61.6793Z" fill="#E69183"/>
<path d="M167.497 108.314H79.6741C79.1459 108.314 78.7141 107.823 78.7141 107.211C78.7141 106.604 79.1417 106.108 79.6741 106.108H167.497C168.026 106.108 168.457 106.6 168.457 107.211C168.457 107.818 168.03 108.314 167.497 108.314Z" fill="black"/>
<path d="M101.863 106.108V108.314H79.6741C79.1459 108.314 78.7141 107.818 78.7141 107.211C78.7141 106.908 78.8231 106.633 78.995 106.431C79.171 106.233 79.41 106.108 79.6741 106.108H101.863Z" fill="#BD4C2C"/>
<path d="M104.621 107.206C104.621 108.96 103.384 110.376 101.863 110.376C100.341 110.376 99.1042 108.955 99.1042 107.206C99.1042 105.458 100.341 104.037 101.863 104.037C103.384 104.037 104.621 105.458 104.621 107.206Z" fill="#BD4C2C"/>
<path d="M101.863 108.464C102.467 108.464 102.957 107.901 102.957 107.207C102.957 106.512 102.467 105.949 101.863 105.949C101.258 105.949 100.769 106.512 100.769 107.207C100.769 107.901 101.258 108.464 101.863 108.464Z" fill="white"/>
<path d="M36.5254 171.887L35.0959 182.273C35.0959 182.273 38.4538 185.038 42.3733 182.273L44.6538 171.892" fill="#E69183"/>
<path d="M20.3863 171.887L18.9568 182.273C18.9568 182.273 22.3146 185.038 26.2342 182.273L27.7601 171.892" fill="#E69183"/>
<path d="M33.738 185.457C33.9769 183.598 35.1549 181.839 35.1549 181.839C36.337 182.148 37.7162 182.244 38.9529 182.249C38.957 182.244 39.7577 181.078 40.0051 180.982C40.2524 180.885 42.3861 180.789 42.7005 180.784C43.0149 180.779 43.9665 182.369 43.9665 182.369C46.1841 182.861 50.1666 183.848 51.638 184.927C54.6856 187.157 53.5705 190.101 53.3441 190.101H33.8386C33.8386 189.691 33.4906 187.307 33.738 185.447V185.457Z" fill="white"/>
<path d="M57.536 69.7575C56.6766 69.7575 55.9472 69.0157 55.8382 68.033L55.2597 62.7437C55.1424 61.6646 55.8089 60.6771 56.7479 60.5422L78.4459 57.4111C78.5172 57.4014 78.5885 57.3966 78.6639 57.3966C79.5233 57.3966 80.2527 58.1385 80.3617 59.1212L80.9402 64.4104C81.0576 65.4895 80.391 66.477 79.452 66.6119L57.754 69.7431C57.6827 69.7527 57.6115 69.7575 57.536 69.7575Z" fill="white"/>
<path d="M78.6598 57.5798C79.4395 57.5798 80.106 58.2542 80.2024 59.1454L80.7809 64.4347C80.8899 65.4125 80.2821 66.3086 79.4311 66.4338L57.7331 69.565C57.666 69.5746 57.6031 69.5794 57.536 69.5794C56.7563 69.5794 56.0898 68.905 55.9934 68.0138L55.4149 62.7246C55.3059 61.7467 55.9137 60.8507 56.7647 60.7254L78.4627 57.5942C78.5298 57.5846 78.5927 57.5798 78.6598 57.5798ZM78.6598 57.2185C78.5801 57.2185 78.5047 57.2233 78.425 57.2378L56.727 60.369C55.6999 60.5183 54.9747 61.5925 55.1047 62.7727L55.6832 68.062C55.8005 69.1507 56.6096 69.9455 57.536 69.9455C57.6157 69.9455 57.6912 69.9407 57.7708 69.9263L79.4688 66.7951C80.4959 66.6458 81.2211 65.5715 81.0912 64.3913L80.5126 59.102C80.3953 58.0133 79.5862 57.2185 78.6598 57.2185Z" fill="black"/>
<path opacity="0.5" d="M60.6482 62.0673L57.5828 62.5098C57.2083 62.5638 56.9429 62.9565 56.99 63.3867L57.375 66.9093C57.4221 67.3396 57.7637 67.6446 58.1382 67.5905L61.2036 67.148C61.5781 67.094 61.8435 66.7014 61.7964 66.2711L61.4113 62.7485C61.3643 62.3182 61.0226 62.0132 60.6482 62.0673Z" fill="#455CF3"/>
<path opacity="0.5" d="M77.7585 60.4458L62.7971 62.6039C62.6755 62.6232 62.5581 62.4449 62.533 62.2089V62.1848C62.5036 61.9487 62.5833 61.7464 62.7007 61.7272L77.6621 59.5691C77.7836 59.5498 77.901 59.728 77.9262 59.9641V59.9882C77.9555 60.2242 77.8759 60.4265 77.7585 60.4458Z" fill="#455CF3"/>
<path opacity="0.5" d="M69.2276 63.789L63.0275 64.685C62.906 64.7043 62.7886 64.5261 62.7634 64.29V64.2659C62.7341 64.0299 62.8137 63.8276 62.9311 63.8083L69.1312 62.9123C69.2527 62.893 69.3701 63.0713 69.3953 63.3073V63.3314C69.4246 63.5675 69.3449 63.7698 69.2276 63.789Z" fill="#455CF3"/>
<path opacity="0.5" d="M77.9849 62.5221L70.1164 63.6589C69.9948 63.6782 69.8775 63.5 69.8523 63.2639V63.2398C69.823 63.0038 69.9026 62.8015 70.02 62.7822L77.8885 61.6453C78.01 61.6261 78.1274 61.8043 78.1526 62.0404V62.0644C78.1819 62.3005 78.1022 62.5028 77.9849 62.5221Z" fill="#455CF3"/>
<path opacity="0.5" d="M71.3406 65.5954L63.2541 66.7612C63.1325 66.7805 63.0152 66.6022 62.99 66.3662V66.3421C62.9607 66.1061 63.0403 65.9037 63.1577 65.8845L71.2441 64.7187C71.3657 64.6994 71.4831 64.8777 71.5082 65.1137V65.1378C71.5376 65.3738 71.4579 65.5762 71.3406 65.5954Z" fill="#455CF3"/>
<path d="M54.3417 78.9825L58.1816 84.8595C59.1248 81.7476 60.7555 76.3716 61.7113 73.2115C61.7113 73.2115 61.77 71.6893 61.77 69.7431C61.77 68.7219 62.3276 67.4598 63.3839 66.4241C63.7948 65.9231 64.7296 65.4895 64.7296 66.5975C64.7296 66.9588 64.3858 67.585 64.2559 67.874C63.9457 68.587 63.8702 69.035 63.8702 69.035L68.3222 68.3943C68.3222 68.3943 67.9868 70.3308 67.7311 70.7595C67.3245 71.9638 64.956 74.1653 64.9518 74.1701C64.6877 75.7405 64.4781 87.7016 62.5288 94.6576C62.1766 95.4621 61.3802 96.1317 59.6237 95.9101C55.6957 95.4139 49.7556 84.3248 49.7556 84.3248L54.3417 78.9777V78.9825Z" fill="#E69183"/>
<path d="M57.448 83.3374C57.448 83.3374 55.2513 87.3887 51.642 89.778L46.0875 83.6168L42.168 68.1921C42.168 68.1921 47.1062 68.7076 48.5902 70.461C49.9568 72.0748 54.8992 79.026 57.448 83.3374Z" fill="#A2D800"/>
<path style="mix-blend-mode:multiply" d="M50.5311 78.2841L53.1428 83.5782L49.7556 82.8267L50.5311 78.2841Z" fill="url(#paint0_linear_35_857)"/>
<path d="M30.0614 105.549L21.9791 144.602L18.0344 176.169C18.0344 176.169 24.0835 176.752 27.76 177.041L31.3735 156.014L32.0023 145.465C32.0023 145.465 35.9093 134.38 38.7725 126.138L39.7953 125.806L40.0888 145.431L37.5945 154.15L35.3769 177.913C35.3769 177.913 42.4279 178.727 45.0186 178.92C45.0186 178.92 49.0681 152.926 50.4808 146.071C51.1222 142.96 51.6798 124.914 51.8391 121.793C52.3966 110.781 51.0258 106.079 51.0258 106.079L30.0614 105.544V105.549Z" fill="#242847"/>
<path d="M28.7327 111.971C39.7368 114.697 51.6296 109.702 51.6296 109.702C51.3571 107.226 51.026 106.084 51.026 106.084L30.0615 105.549L28.7327 111.971Z" fill="black"/>
<path d="M52.2709 108.907C52.2709 108.907 35.9219 113.951 29.005 107.399C29.5919 104.167 30.3381 98.1598 30.1788 95.3417C30.1243 94.3349 29.9944 93.4678 29.7931 92.8127C29.1853 90.8376 28.2924 88.0678 27.542 85.1919C26.6323 81.7235 25.9406 78.1058 26.2131 75.5623C26.7749 70.3405 34.7146 68.139 34.7146 68.139L41.5141 68.0668C41.5141 68.0668 47.5045 68.7653 50.3006 73.6162C52.4721 77.3832 52.2709 108.902 52.2709 108.902V108.907Z" fill="#A2D800"/>
<path d="M32.2245 84.2718L31.0005 95.3417H30.1746C30.1201 94.3349 29.9902 93.4678 29.789 92.8127C29.1811 90.8376 28.2882 88.0677 27.5378 85.1919L32.2204 84.267L32.2245 84.2718Z" fill="black"/>
<path d="M44.3979 50.5803C44.3979 50.5803 45.513 55.4457 43.8781 56.361C42.5492 57.1076 42.4318 54.9302 42.4318 54.9302L42.1174 52.5602" fill="black"/>
<path d="M35.3308 60.311C34.4882 58.5335 33.1216 55.2048 33.4108 52.8733C33.8216 49.5543 42.0506 46.1196 43.7736 53.408C43.7736 53.408 46.0918 63.1917 43.0735 64.7043C43.0735 64.7043 42.0884 65.1186 40.684 64.897C40.8182 65.4558 40.9607 66.0242 41.0948 66.53C41.3296 67.4116 41.5182 68.0764 41.5182 68.0764C41.5182 68.0764 43.7149 70.5669 40.0426 70.9763C35.8254 71.4436 34.7146 68.1438 34.7146 68.1438C35.2679 65.9953 35.3727 65.3836 35.8632 63.0231C35.6578 62.6907 35.5027 60.6675 35.3308 60.311Z" fill="#E69183"/>
<path d="M37.5317 63.3412C38.127 64.3383 39.2966 65.8798 41.0908 66.5302C40.9566 66.0292 40.8099 65.4559 40.68 64.902C39.7619 64.7574 38.6594 64.3335 37.5317 63.3412Z" fill="black"/>
<path d="M32.761 50.5804C33.7797 44.9539 39.7701 47.3528 41.8955 47.5503C43.1866 46.1245 44.5407 46.0522 45.2324 46.4617C46.1798 47.0253 46.5193 49.0774 46.4355 49.9975C45.9199 55.7444 40.0175 55.4216 38.4119 55.1615C38.3658 55.5951 38.2694 56.0093 38.0514 56.3658C37.8376 56.7175 37.4771 56.9535 37.0369 57.1125C36.8441 56.7897 36.559 56.4862 36.1776 56.4814C36.0518 56.4814 35.9135 56.5055 35.7709 56.573C35.4691 56.7175 35.3056 57.0161 35.2427 57.3871C35.1044 58.1193 35.4859 59.2369 35.9344 59.9161C35.9554 61.1734 35.8631 62.2765 35.859 63.0328C35.859 63.0328 31.9352 56.3417 31.931 56.3369C31.2854 55.2579 29.6841 51.6016 32.761 50.5852V50.5804Z" fill="black"/>
<path d="M51.2648 102.052L39.678 102.341C39.4767 102.274 38.8563 101.604 38.7306 101.474C38.4329 101.166 38.2988 100.785 38.4245 100.356L44.0209 81.3526C44.2305 80.6348 44.8258 80.1579 45.4881 80.182L57.5319 80.5674C57.7876 80.577 58.0056 80.7071 58.1565 80.9046C58.2236 80.9961 58.8985 81.5597 58.9362 81.6754C59.0033 81.8777 58.3954 81.6513 58.3284 81.8777L52.732 100.882C52.5224 101.599 51.9271 102.076 51.2648 102.052Z" fill="black"/>
<path d="M52.0403 102.808L39.9966 102.423C39.4139 102.404 39.0156 101.744 39.2043 101.113L44.8007 82.1089C45.0103 81.3912 45.6055 80.9143 46.2679 80.9384L58.3116 81.3237C58.8943 81.343 59.2926 82.003 59.1039 82.634L53.5075 101.638C53.2979 102.356 52.7027 102.833 52.0403 102.808Z" fill="#7050D9"/>
<path d="M23.744 80.6589L30.3423 83.53C30.3423 83.53 29.6422 89.643 28.5984 93.7232C32.2245 93.5979 37.4394 93.3715 38.0221 93.227C38.2359 93.0873 39.1079 91.4157 39.372 91.0785C39.6319 90.7413 40.5164 89.7249 40.7637 89.142C41.011 88.5543 41.6734 87.9618 41.9459 88.7855C42.4112 90.2066 41.4261 91.4735 41.3925 91.7818C41.3883 91.83 42.5747 91.2471 43.3921 90.9822C43.8071 90.775 44.0293 90.6594 44.4946 90.433C44.8258 90.2692 45.0354 90.1295 45.2199 90.0814C45.7187 89.9513 46.1295 90.0525 46.2427 90.4041C46.3601 90.7606 46.008 91.0014 45.5049 91.3435C45.5929 91.3001 45.6768 91.2568 45.7564 91.2182C46.0876 91.0544 46.3014 90.9436 46.4817 90.8666C46.6661 90.7895 47.2823 90.6498 47.3955 91.0015C47.5171 91.3724 47.1733 91.6614 46.6535 92.0371C46.838 92.0371 47.0099 92.095 47.0644 92.2636C47.1985 92.673 46.6577 93.0632 46.0289 93.5064C46.2595 93.4823 46.5068 93.516 46.5739 93.7232C46.7206 94.1663 46.1253 94.9467 45.3833 95.6163C44.6749 96.257 44.2012 96.522 42.3273 96.9555C40.8056 97.3072 38.3198 97.4565 38.1479 97.5095C32.1784 99.4845 27.4791 100.882 25.5256 101.262C21.4174 102.062 21.0821 100.723 20.776 99.4315C20.055 96.3871 23.744 80.6686 23.744 80.6686V80.6589Z" fill="#E69183"/>
<path d="M25.8734 71.2414C26.7411 69.4832 34.7144 68.1488 34.7144 68.1488L32.6938 79.5752C32.7316 82.7208 31.0296 90.9389 31.0296 90.9389C30.0654 91.0401 27.9359 90.9293 26.2884 90.6403C24.3139 90.2838 21.4172 89.0891 21.4172 89.0891C21.4172 89.0891 23.1024 76.8535 25.8734 71.2414Z" fill="#A2D800"/>
<path d="M17.9674 182.253C17.9674 182.253 18.5626 181.011 19.1411 180.953C19.5562 180.909 21.9205 181.073 22.6331 181.362C23.0859 181.545 23.2032 182.128 23.3583 182.74C24.2429 182.692 25.2154 182.552 26.2383 182.273C26.2383 182.273 27.8941 183.935 27.1479 190.115H10.3378C10.3378 190.115 8.69038 182.326 17.9632 182.258L17.9674 182.253Z" fill="white"/>
<path d="M37.1374 182.172C37.1374 182.172 36.1439 185.452 33.7754 185.192C33.7754 185.192 34.073 183.13 35.1588 181.791C35.1588 181.791 35.9553 182.061 37.1374 182.167V182.172Z" fill="#242847"/>
<path d="M26.2341 182.268C26.2341 182.268 27.1145 183.039 27.2235 185.206C27.2235 185.206 25.7898 184.33 25.1526 182.514C25.1526 182.514 25.6053 182.446 26.2299 182.263L26.2341 182.268Z" fill="#242847"/>
<path d="M38.7725 126.143L40.4032 118.561L43.1196 116.687L41.2835 118.657L39.7953 125.81L38.7725 126.143Z" fill="black"/>
<path d="M28.4012 93.7039C28.4012 93.7039 26.1124 93.3811 24.0667 94.86" stroke="black" stroke-width="0.157002" stroke-linecap="round" stroke-linejoin="round"/>
<path d="M45.3875 91.3723C45.3875 91.3723 44.4275 92.0275 43.8951 92.3647C43.3627 92.697 42.5369 92.9716 42.5369 92.9716" stroke="black" stroke-width="0.157002" stroke-linecap="round" stroke-linejoin="round"/>
<path d="M46.4146 92.1478C46.4146 92.1478 45.1738 93.0197 44.6414 93.3569C44.109 93.6893 42.8682 94.1325 42.8682 94.1325" stroke="black" stroke-width="0.157002" stroke-linecap="round" stroke-linejoin="round"/>
<path d="M45.9578 93.5591C45.9578 93.5591 45.0271 94.4069 44.4989 94.7393C43.9666 95.0717 43.082 95.2933 43.082 95.2933" stroke="black" stroke-width="0.157002" stroke-linecap="round" stroke-linejoin="round"/>
<path d="M212.864 146.669L215.102 133.388H203.864L208.114 118.05H195.664L191.413 133.388H180.665L184.916 118.05H172.465L168.214 133.388H155.806L153.475 146.669H164.534L160.426 161.491H147.833L145.502 174.772H156.741L152.49 190.11H164.94L169.191 174.772H179.94L175.689 190.11H188.139L192.39 174.772H204.891L207.129 161.491H196.071L200.179 146.669H212.86H212.864ZM183.62 161.496H172.872L176.98 146.674H187.728L183.62 161.496Z" fill="white"/>
<path d="M161.302 119.245C161.302 119.245 165.762 119.929 168.299 119.596C171.237 119.211 168.508 116.003 168.508 116.003L161.616 117.91L161.302 119.245Z" fill="url(#paint1_linear_35_857)"/>
<path d="M148.65 149.419L149.874 158.649L155.928 154.935L155.483 146.929" fill="#E69183"/>
<path d="M157.86 156.048C157.378 155.513 156.422 154.925 155.928 154.935L152.377 157.112L151.677 156.592L149.417 156.997L148.654 160.72C148.654 160.72 145.682 162.594 144.542 164.738C142.827 167.961 144.898 170.321 144.898 170.321L160.417 161.496C160.417 161.496 159.939 158.36 157.86 156.053V156.048Z" fill="#F7E035"/>
<path d="M148.654 160.716C148.654 160.716 150.034 160.2 152.281 160.229L152.377 157.108C152.377 157.108 151.874 156.66 151.677 156.587C151.132 156.395 149.589 156.64 149.17 157.088C148.558 157.739 148.65 160.716 148.65 160.716H148.654Z" fill="#242847"/>
<path d="M175.66 123.874L174.863 134.659L168.495 136.827C168.495 136.827 156.171 131.104 154.54 130.17C154.88 133.137 156.016 152.17 156.016 152.17C153.169 154.352 146.571 153.336 146.571 153.336C146.571 153.336 143.041 132.13 141.968 124.51C141.381 120.323 143.909 115.728 151.966 116.908C154.829 117.332 162.233 119.524 164.928 120.266C171.367 122.034 175.66 123.869 175.66 123.869V123.874Z" fill="#242847"/>
<path d="M158.284 132.02L174.415 134.809L168.5 136.827C168.5 136.827 162.467 134.024 158.284 132.02Z" fill="black"/>
<path d="M168.5 173.077L170.39 182.191L177.249 181.945L175.509 172.156" fill="#E69183"/>
<path d="M178.552 183.93C178.326 183.202 177.697 182.191 177.248 181.945L173.228 182.085L172.801 181.261L170.621 180.471L168.5 183.419C168.5 183.419 165.112 183.583 163.264 184.922C160.484 186.936 161.428 190.11 161.428 190.11H178.745C178.745 190.11 179.525 187.056 178.556 183.93H178.552Z" fill="#F7E035"/>
<path d="M168.5 183.419C168.5 183.419 169.933 183.66 171.937 184.831L173.228 182.085C173.228 182.085 172.952 181.425 172.801 181.261C172.386 180.808 170.91 180.245 170.361 180.433C169.565 180.702 168.496 183.419 168.496 183.419H168.5Z" fill="#242847"/>
<path d="M187.716 122.318C187.716 122.318 179.173 125.093 174.926 122.482C174.926 122.482 161.788 140.956 161.273 147.921C161.138 149.713 166.84 177.128 166.84 177.128C166.84 177.128 174.494 175.774 176.389 174.926C176.389 174.926 174.503 156.202 172.864 150.234C177.098 144.761 180.401 141.187 184.115 136.023C184.731 135.17 188.416 133.388 188.416 133.388C188.416 133.388 189.795 130.03 187.708 122.318H187.716Z" fill="#242847"/>
<path d="M188.823 131.167C187.921 131.307 186.664 131.379 184.97 131.23C180.795 130.859 175.66 127.453 175.66 127.453V126.066L174.926 122.482C179.168 125.093 187.712 122.318 187.712 122.318C188.844 126.49 188.957 129.385 188.823 131.167Z" fill="black"/>
<path d="M167.917 104.793C167.464 104.668 167.028 104.533 166.613 104.388C162.346 102.948 161.159 101.228 161.159 101.228C163.838 92.5911 164.936 89.1131 166.19 87.5234C167.116 86.348 172.436 85.1871 173.568 85.0377C173.857 87.1477 167.246 95.5536 167.083 95.6548L167.913 104.793H167.917Z" fill="#F7E035"/>
<path style="mix-blend-mode:multiply" d="M166.986 96.2424L166.005 101.464L168.378 100.78L166.986 96.2424Z" fill="url(#paint2_linear_35_857)"/>
<path d="M189.544 124.529C189.615 124.905 188.555 127.174 185.184 128.648C185.184 128.648 178.447 130.835 172.424 125.083C169.523 122.318 166.282 120.627 166.282 120.627C166.144 120.521 166.169 120.247 166.332 119.982C166.462 119.774 167.2 118.522 167.217 118.416C168.387 111.176 167.401 110.458 167.33 104.918C167.33 104.779 167.322 104.644 167.322 104.504C167.196 95.963 166.441 91.695 166.789 89.0552C168.512 86.8441 173.266 85.1051 173.568 85.0328C173.581 85.0232 178.569 84.9895 179.659 85.0328C182.149 85.7699 186.559 87.2921 188.752 91.5842C188.63 95.014 188.823 99.1809 188.462 104.523C188.399 105.328 188.345 118.146 189.54 124.519L189.544 124.529Z" fill="#F7E035"/>
<path d="M168.256 71.0725C168.256 71.0725 167.279 74.9793 169.401 75.4128L169.874 72.1178" fill="black"/>
<path d="M179.663 85.0037C179.164 84.917 179.051 78.7028 179.051 78.7028H179.038C179.206 78.4716 179.344 78.2018 179.428 77.8309C179.852 75.9233 180.447 72.4019 179.688 70.2824C178.607 67.262 169.271 64.3958 169.17 71.7516C169.17 71.7516 168.051 81.5594 171.815 83.1684C171.815 83.1684 172.696 83.2599 173.849 82.9757C173.714 83.968 173.576 85.0037 173.576 85.0037H173.572C173.262 85.4517 171.95 88.8719 174.871 89.2718C179.411 89.8932 180.422 85.4084 179.667 85.0037H179.663Z" fill="#E9B798"/>
<path d="M177.324 80.7792C177.253 80.9815 176.07 84.2524 173.601 84.7726L173.849 82.971C174.93 82.7061 176.255 82.1039 177.324 80.7792Z" fill="black"/>
<path d="M179.625 80.866L179.143 81.1887C179.017 79.5846 179.059 78.1202 178.975 76.9978C178.98 76.9978 178.975 76.993 178.975 76.993C179.248 75.7742 179.022 74.1894 178.112 74.0978C176.645 73.9485 176.594 76.3812 176.594 76.3812C175.312 76.1211 175.068 73.6161 174.976 72.6623C174.146 72.9851 167.288 74.2279 167.623 69.7335C167.623 69.7335 167.317 69.0398 167.217 68.3365C166.408 62.7582 171.681 64.8633 171.681 64.8633C171.681 64.8633 172.557 62.5318 175.261 63.6397C177.148 64.4153 178.116 66.029 178.116 66.029C178.116 66.029 178.871 65.3257 179.562 66.4048C180.011 67.1081 179.722 68.6014 179.722 68.6014C184.211 69.5456 179.68 80.5095 179.625 80.866Z" fill="black"/>
<path d="M181.642 98.1501L183.579 107.495L187.548 106.19L181.642 98.1501Z" fill="black"/>
<path d="M190.6 94.9611L183.21 98.8919C183.21 98.8919 185.733 104.682 187.41 108.733C185.796 109.186 170.621 113.488 170.621 113.488C170.801 114.924 171.136 117.395 171.136 117.395C175.492 117.135 182.187 116.542 187.452 116.133C189.623 115.969 191.476 115.728 192.457 115.338C194.004 114.726 195.631 113.454 195.702 111.6C195.807 108.883 190.604 94.9611 190.604 94.9611H190.6Z" fill="#E9B798"/>
<path d="M178.376 118.421H169.221V117.39H178.376C178.623 117.39 178.825 117.621 178.825 117.905C178.825 118.19 178.623 118.421 178.376 118.421Z" fill="black"/>
<path d="M173.421 118.421H151.539C151.266 118.421 151.023 118.209 150.952 117.905L146.261 98.492C146.156 98.0633 146.437 97.6394 146.827 97.6394H167.955C168.47 97.6394 168.923 98.0344 169.061 98.6077L173.736 117.949C173.794 118.185 173.639 118.421 173.425 118.421H173.421Z" fill="black"/>
<path d="M172.591 118.421H150.709C150.436 118.421 150.193 118.209 150.122 117.905L145.431 98.492C145.326 98.0633 145.607 97.6394 145.997 97.6394H167.125C167.64 97.6394 168.093 98.0344 168.231 98.6077L172.905 117.949C172.964 118.185 172.809 118.421 172.595 118.421H172.591Z" fill="#7050D9"/>
<path d="M153.274 118.421C153.274 118.421 153.651 119.394 155.37 119.591L155.253 118.421H153.278H153.274Z" fill="url(#paint3_linear_35_857)"/>
<path d="M153.677 115.121C153.714 114.938 154.096 114.736 154.406 114.856C154.276 114.432 154.171 114.071 154.175 114.023C154.209 113.507 154.645 113.575 154.892 113.734C155.177 113.917 155.513 114.769 155.601 114.861C155.487 114.591 155.37 114.268 155.378 114.235C155.441 113.931 156.028 113.676 156.368 114.028C156.54 114.211 157.051 115.188 157.177 115.449C157.139 115.285 157.118 115.164 157.127 115.14C157.189 114.837 157.692 114.726 158.028 115.078C158.518 115.593 159.223 117.477 159.223 117.477C159.545 118.315 159.847 118.421 159.939 118.421H161.742C161.742 118.421 161.599 119.283 160.757 119.611C159.918 119.929 158.602 120.136 156.971 120.083C156.167 120.059 155.194 119.736 154.699 118.874C154.527 118.575 154.18 117.082 154.058 116.528C153.987 116.243 153.672 115.155 153.681 115.121H153.677Z" fill="url(#paint4_linear_35_857)"/>
<path d="M180.728 95.5438C183.088 102.375 184.094 104.711 184.094 104.711C189.46 102.823 193.556 100.915 193.556 100.915C191.887 95.6402 189.355 89.0936 187.909 87.7544C186.324 86.2852 180.221 85.2109 180.221 85.2109" fill="#F7E035"/>
<path d="M187.699 108.598C187.699 108.598 191.124 107.524 193.187 109.552" stroke="black" stroke-width="0.157002" stroke-linecap="round" stroke-linejoin="round"/>
<path d="M193.157 64.6418C190.524 65.0223 188.365 67.3972 187.934 70.4031C187.653 72.3396 188.072 74.1557 188.94 75.5864L187.125 79.2619C186.923 79.6714 187.326 80.1242 187.678 79.8785L190.881 77.6385C192.013 78.3948 193.371 78.7561 194.817 78.5201C197.513 78.0817 199.671 75.5575 199.994 72.4504C200.468 67.8885 197.127 64.0637 193.153 64.6369L193.157 64.6418Z" stroke="white" stroke-width="0.628009" stroke-miterlimit="10"/>
<path d="M190.57 72.6383C191.066 72.6383 191.468 72.1768 191.468 71.6074C191.468 71.0381 191.066 70.5765 190.57 70.5765C190.075 70.5765 189.673 71.0381 189.673 71.6074C189.673 72.1768 190.075 72.6383 190.57 72.6383Z" fill="white"/>
<path d="M194.188 72.6383C194.684 72.6383 195.085 72.1768 195.085 71.6074C195.085 71.0381 194.684 70.5765 194.188 70.5765C193.693 70.5765 193.291 71.0381 193.291 71.6074C193.291 72.1768 193.693 72.6383 194.188 72.6383Z" fill="white"/>
<path d="M197.806 72.6383C198.301 72.6383 198.703 72.1768 198.703 71.6074C198.703 71.0381 198.301 70.5765 197.806 70.5765C197.311 70.5765 196.909 71.0381 196.909 71.6074C196.909 72.1768 197.311 72.6383 197.806 72.6383Z" fill="white"/>
<path d="M17.5983 25.7332C21.5346 26.3016 24.7625 29.8567 25.4122 34.3512C25.8314 37.2511 25.2026 39.968 23.9031 42.1117L26.6195 47.6129C26.9214 48.2247 26.3177 48.8991 25.7937 48.533L21.0022 45.185C19.3086 46.3171 17.2755 46.8566 15.1124 46.505C11.0796 45.8498 7.85175 42.0731 7.36548 37.4245C6.65283 30.5986 11.6539 24.8757 17.5983 25.7332Z" stroke="white" stroke-width="0.628009" stroke-miterlimit="10"/>
<path d="M22.1218 33.1904H10.7194C10.426 33.1904 10.187 32.9158 10.187 32.5786C10.187 32.2414 10.426 31.9668 10.7194 31.9668H22.1218C22.4152 31.9668 22.6542 32.2414 22.6542 32.5786C22.6542 32.9158 22.4152 33.1904 22.1218 33.1904Z" fill="white"/>
<path d="M22.1218 37.0633H10.7194C10.426 37.0633 10.187 36.7887 10.187 36.4515C10.187 36.1143 10.426 35.8397 10.7194 35.8397H22.1218C22.4152 35.8397 22.6542 36.1143 22.6542 36.4515C22.6542 36.7887 22.4152 37.0633 22.1218 37.0633Z" fill="white"/>
<path d="M15.8882 40.9411H10.7194C10.426 40.9411 10.187 40.6665 10.187 40.3293C10.187 39.9921 10.426 39.7175 10.7194 39.7175H15.8882C16.1816 39.7175 16.4206 39.9921 16.4206 40.3293C16.4206 40.6665 16.1816 40.9411 15.8882 40.9411Z" fill="white"/>
<path d="M78.0473 134.616L78.7139 130.652H75.3602L76.6304 126.071H72.9121L71.6419 130.652H68.4308L69.701 126.071H65.9826L64.7125 130.652H61.0067L60.3108 134.616H63.6099L62.3817 139.044H58.6214L57.9255 143.008H61.2792L60.009 147.589H63.7273L64.9975 143.008H68.2086L66.9384 147.589H70.6568L71.927 143.008H75.6579L76.3244 139.044H73.0253L74.2535 134.616H78.039H78.0473ZM69.3153 139.044H66.1042L67.3325 134.616H70.5436L69.3153 139.044Z" fill="white"/>
<path d="M126.73 167.47L127.128 165.104H125.128L125.883 162.373H123.669L122.915 165.104H121.003L121.762 162.373H119.544L118.79 165.104H116.581L116.166 167.47H118.132L117.402 170.109H115.164L114.749 172.475H116.748L115.994 175.206H118.207L118.962 172.475H120.873L120.119 175.206H122.336L123.091 172.475H125.317L125.715 170.109H123.749L124.479 167.47H126.734H126.73ZM121.527 170.109H119.616L120.345 167.47H122.257L121.527 170.109Z" fill="black"/>
<path d="M213.48 26.9136L213.924 24.2689H211.686L212.532 21.2148H210.051L209.204 24.2689H207.062L207.909 21.2148H205.427L204.58 24.2689H202.107L201.642 26.9136H203.842L203.025 29.8665H200.518L200.053 32.5112H202.291L201.444 35.5653H203.926L204.773 32.5112H206.915L206.068 35.5653H208.55L209.397 32.5112H211.887L212.331 29.8665H210.13L210.948 26.9136H213.476H213.48ZM207.657 29.8665H205.515L206.332 26.9136H208.475L207.657 29.8665Z" fill="white"/>
<path d="M205.641 48.4751H186.412V50.2575H205.641V48.4751Z" fill="white"/>
<path d="M20.6837 63.943H6.52295V65.7254H20.6837V63.943Z" fill="white"/>
<path d="M26.7581 163.25H4.39355V165.032H26.7581V163.25Z" fill="white"/>
<path d="M124.173 124.298H105.82V126.075H124.173V124.298Z" fill="white"/>
<path d="M131.408 124.298H125.648V126.075H131.408V124.298Z" fill="white"/>
<path d="M222.904 91.4259C223.914 86.4677 221.234 81.5077 216.92 80.3475C212.605 79.1873 208.289 82.2662 207.279 87.2244C206.269 92.1826 208.949 97.1426 213.263 98.3027C217.578 99.4629 221.894 96.384 222.904 91.4259Z" fill="white"/>
<path d="M217.462 87.3596C217.462 89.0649 216.406 90.4426 215.102 90.4426C213.799 90.4426 212.742 89.0601 212.742 87.3596C212.742 85.6592 213.799 84.2766 215.102 84.2766C216.406 84.2766 217.462 85.6592 217.462 87.3596Z" fill="#242847"/>
<path d="M220.359 94.9228C219.051 96.5462 217.177 97.5627 215.102 97.5627C213.027 97.5627 211.153 96.5462 209.845 94.9228C210.101 94.5423 210.395 94.1954 210.709 93.8775C211.665 92.9285 212.864 92.3023 214.176 92.1192C214.792 92.0325 215.417 92.0325 216.029 92.1192C217.773 92.3601 219.319 93.391 220.359 94.918V94.9228Z" fill="#242847"/>
<path d="M5.86185 112.919C8.07561 111.989 9.21454 109.173 8.40574 106.63C7.59693 104.086 5.14667 102.777 2.93291 103.706C0.719162 104.636 -0.419773 107.451 0.389031 109.995C1.19784 112.539 3.6481 113.848 5.86185 112.919Z" fill="white"/>
<path d="M5.64674 107.264C5.64674 108.17 5.085 108.907 4.39331 108.907C3.70163 108.907 3.13989 108.175 3.13989 107.264C3.13989 106.354 3.70163 105.622 4.39331 105.622C5.085 105.622 5.64674 106.354 5.64674 107.264Z" fill="#242847"/>
<path d="M7.18936 111.291C6.49348 112.154 5.49577 112.698 4.39326 112.698C3.29075 112.698 2.29305 112.159 1.59717 111.291C1.73551 111.089 1.88642 110.906 2.0541 110.737C2.56134 110.232 3.20272 109.899 3.8986 109.803C4.22558 109.76 4.55675 109.76 4.88373 109.803C5.81017 109.933 6.63181 110.482 7.18516 111.291H7.18936Z" fill="#242847"/>
<path d="M86.7923 151.765C86.0671 151.033 85.1826 151.24 84.5915 151.626C84.0172 152.001 83.7028 152.58 83.7028 152.58C83.7028 152.58 83.3884 152.001 82.8141 151.626C82.223 151.24 81.3385 151.033 80.6133 151.765C78.8945 153.5 81.4684 157.667 83.707 158.591C85.9414 157.667 88.5195 153.504 86.8007 151.765H86.7923Z" stroke="white" stroke-width="0.628009" stroke-linecap="round" stroke-linejoin="round"/>
<path d="M103.133 32.6747C102.408 31.9425 101.523 32.1497 100.932 32.5351C100.358 32.9108 100.043 33.4889 100.043 33.4889C100.043 33.4889 99.729 32.9108 99.1547 32.5351C98.5636 32.1497 97.6791 31.9425 96.9539 32.6747C95.2352 34.4089 97.8091 38.5758 100.043 39.5007C102.278 38.5758 104.856 34.4138 103.133 32.6747Z" fill="#BD4C2C"/>
<path d="M165.854 61.7706C165.129 61.0384 164.244 61.2455 163.653 61.6309C163.079 62.0066 162.765 62.5847 162.765 62.5847C162.765 62.5847 162.45 62.0066 161.876 61.6309C161.285 61.2455 160.4 61.0384 159.675 61.7706C157.956 63.5048 160.53 67.6716 162.765 68.5965C164.999 67.6716 167.577 63.5096 165.854 61.7706Z" fill="#BD4C2C"/>
<path d="M158.501 73.6837C157.365 72.5372 155.986 72.8648 155.068 73.4621C154.171 74.0498 153.676 74.9506 153.676 74.9506C153.676 74.9506 153.186 74.0498 152.285 73.4621C151.362 72.86 149.983 72.5372 148.851 73.6837C146.164 76.3958 150.189 82.8942 153.676 84.3345C157.164 82.8942 161.189 76.391 158.501 73.6837Z" fill="#BD4C2C"/>
<path d="M91.0934 83.3133C90.3346 82.5473 89.4124 82.7641 88.7962 83.1688C88.1925 83.5638 87.8655 84.1659 87.8655 84.1659C87.8655 84.1659 87.5385 83.5638 86.9349 83.1688C86.3187 82.7641 85.3964 82.5473 84.6377 83.3133C82.8393 85.1245 85.5306 89.4793 87.8655 90.4427C90.2005 89.4793 92.8918 85.1294 91.0934 83.3133Z" fill="white"/>
<path d="M37.1585 0.866898C36.5088 0.21176 35.7165 0.394813 35.1925 0.741651C34.6768 1.07885 34.396 1.59429 34.396 1.59429C34.396 1.59429 34.1151 1.07885 33.5995 0.741651C33.0713 0.39963 32.2832 0.21176 31.6334 0.866898C30.0949 2.41803 32.4006 6.14173 34.396 6.97028C36.3956 6.14654 38.697 2.42285 37.1585 0.866898Z" stroke="white" stroke-width="0.628009" stroke-miterlimit="10"/>
<path d="M145.804 47.1072C145.347 46.6448 144.793 46.7749 144.42 47.0205C144.06 47.2566 143.863 47.6179 143.863 47.6179C143.863 47.6179 143.666 47.2566 143.305 47.0205C142.936 46.7797 142.379 46.6496 141.922 47.1072C140.84 48.1959 142.458 50.8117 143.863 51.3897C145.267 50.8117 146.885 48.1959 145.804 47.1072Z" fill="white"/>
<path d="M120.333 141.856C119.331 140.845 118.111 141.129 117.294 141.664C116.497 142.184 116.066 142.984 116.066 142.984C116.066 142.984 115.63 142.184 114.837 141.664C114.024 141.134 112.804 140.845 111.798 141.856C109.421 144.255 112.98 150.002 116.066 151.279C119.151 150.002 122.71 144.255 120.333 141.856Z" fill="#BD4C2C"/>
<path d="M215.253 190.11H4.39331V191.218H215.253V190.11Z" fill="url(#paint5_linear_35_857)"/>
<path d="M198.506 194.08H132.041V195.188H198.506V194.08Z" fill="url(#paint6_linear_35_857)"/>
<path d="M56.5845 194.08H6.95068V195.188H56.5845V194.08Z" fill="url(#paint7_linear_35_857)"/>
</g>
<defs>
<linearGradient id="paint0_linear_35_857" x1="51.4492" y1="77.8794" x2="51.4492" y2="87.0273" gradientUnits="userSpaceOnUse">
<stop stop-color="#7EC3F9"/>
<stop offset="1" stop-color="#4F8AF9"/>
</linearGradient>
<linearGradient id="paint1_linear_35_857" x1="165.481" y1="115.935" x2="165.481" y2="119.577" gradientUnits="userSpaceOnUse">
<stop stop-color="#EECCAE"/>
<stop offset="1" stop-color="#E9B695"/>
</linearGradient>
<linearGradient id="paint2_linear_35_857" x1="167.188" y1="96.9024" x2="167.188" y2="102.881" gradientUnits="userSpaceOnUse">
<stop stop-color="#7EC3F9"/>
<stop offset="1" stop-color="#4F8AF9"/>
</linearGradient>
<linearGradient id="paint3_linear_35_857" x1="149.883" y1="116.229" x2="153.689" y2="117.79" gradientUnits="userSpaceOnUse">
<stop stop-color="#EECCAE"/>
<stop offset="1" stop-color="#E9B695"/>
</linearGradient>
<linearGradient id="paint4_linear_35_857" x1="156.762" y1="113.059" x2="159.175" y2="120.229" gradientUnits="userSpaceOnUse">
<stop stop-color="#EECCAE"/>
<stop offset="1" stop-color="#E9B695"/>
</linearGradient>
<linearGradient id="paint5_linear_35_857" x1="4.39331" y1="190.664" x2="215.253" y2="190.664" gradientUnits="userSpaceOnUse">
<stop stop-color="#24307B"/>
<stop offset="1" stop-color="#1B0048"/>
</linearGradient>
<linearGradient id="paint6_linear_35_857" x1="132.041" y1="194.634" x2="198.506" y2="194.634" gradientUnits="userSpaceOnUse">
<stop stop-color="#24307B"/>
<stop offset="1" stop-color="#1B0048"/>
</linearGradient>
<linearGradient id="paint7_linear_35_857" x1="6.95068" y1="194.634" x2="56.5845" y2="194.634" gradientUnits="userSpaceOnUse">
<stop stop-color="#24307B"/>
<stop offset="1" stop-color="#1B0048"/>
</linearGradient>
<clipPath id="clip0_35_857">
<rect width="223" height="195" fill="white" transform="translate(0.125977 0.1875)"/>
</clipPath>
</defs>
</svg>
