<svg width="31" height="31" viewBox="0 0 31 31" fill="none" xmlns="http://www.w3.org/2000/svg">
<path d="M15.1969 6.70473C15.1969 3.58146 17.3386 0.458191 20.1942 0.458191C20.1942 3.58146 18.0525 6.70473 15.1969 6.70473Z" fill="black"/>
<path d="M15.9777 9.21333C15.1737 9.21333 14.5515 8.96814 13.8561 8.69412C12.9757 8.34717 11.978 7.95401 10.3455 7.95401C7.42366 7.95401 2.70386 10.2019 2.70386 16.1987C2.70386 23.173 7.55228 30.4415 10.6755 30.4415C11.7211 30.4415 12.6632 30.0474 13.5635 29.6708C14.3872 29.326 15.1763 28.9959 15.9777 28.9959C16.7792 28.9959 17.5683 29.326 18.392 29.6708C19.2923 30.0474 20.2343 30.4415 21.28 30.4415C23.4547 30.4415 26.0617 26.9173 27.69 22.4222C25.1591 21.4019 23.5329 18.9999 23.5329 16.1994C23.5329 13.7573 24.8847 12.1364 26.9092 10.9523C25.3475 8.70359 23.026 7.95401 21.3571 7.95401C19.7246 7.95401 18.7268 8.34717 17.8464 8.69412C17.1512 8.96814 16.7818 9.21333 15.9777 9.21333Z" fill="black"/>
</svg>
