<svg width="31" height="31" viewBox="0 0 31 31" fill="none" xmlns="http://www.w3.org/2000/svg">
<path d="M5.85328 2.65082C3.95531 2.65082 2.4167 4.18943 2.4167 6.0874V24.8324C2.4167 26.7304 3.95531 28.2689 5.85328 28.2689H13.6829L13.6828 18.8958H12.7264C11.8637 18.8958 11.1644 18.1964 11.1644 17.3338C11.1644 16.471 11.8637 15.7717 12.7264 15.7717H13.6769L13.6643 12.3508C13.6559 10.1019 15.4767 8.27431 17.7256 8.27431H21.4741C22.3369 8.27431 23.0362 8.97367 23.0362 9.83639C23.0362 10.6991 22.3369 11.3985 21.4741 11.3985H17.7256C17.2066 11.3985 16.7865 11.8202 16.7885 12.3392L16.8011 15.7717H18.9746C19.8373 15.7717 20.5367 16.471 20.5367 17.3338C20.5367 18.1964 19.8373 18.8958 18.9746 18.8958H16.807L16.8071 28.2689H24.5982C26.4962 28.2689 28.0348 26.7304 28.0348 24.8324V6.0874C28.0348 4.18943 26.4962 2.65082 24.5982 2.65082H5.85328Z" fill="#0866FF"/>
</svg>
