<svg width="31" height="31" viewBox="0 0 31 31" fill="none" xmlns="http://www.w3.org/2000/svg">
<path fill-rule="evenodd" clip-rule="evenodd" d="M28.9645 15.7854C28.9645 14.7663 28.873 13.7865 28.7032 12.8458H15.1682V18.4048H22.9025C22.5693 20.2012 21.5568 21.7233 20.0348 22.7423V26.3482H24.6793C27.3967 23.8463 28.9645 20.162 28.9645 15.7854Z" fill="#4285F4"/>
<path fill-rule="evenodd" clip-rule="evenodd" d="M15.1681 29.8317C19.0483 29.8317 22.3014 28.5448 24.6792 26.35L20.0347 22.7441C18.7479 23.6064 17.1017 24.1159 15.1681 24.1159C11.4251 24.1159 8.25692 21.5879 7.12683 18.1911H2.32556V21.9145C4.69027 26.6113 9.55033 29.8317 15.1681 29.8317Z" fill="#34A853"/>
<path fill-rule="evenodd" clip-rule="evenodd" d="M7.12689 18.191C6.83947 17.3287 6.67616 16.4077 6.67616 15.4605C6.67616 14.5133 6.83947 13.5922 7.12689 12.73V9.00653H2.32562C1.35231 10.9466 0.797058 13.1415 0.797058 15.4605C0.797058 17.7795 1.35231 19.9743 2.32562 21.9144L7.12689 18.191Z" fill="#FBBC05"/>
<path fill-rule="evenodd" clip-rule="evenodd" d="M15.1681 6.80454C17.2781 6.80454 19.1724 7.52963 20.6618 8.95368L24.7837 4.83177C22.2949 2.51279 19.0418 1.08875 15.1681 1.08875C9.5503 1.08875 4.69024 4.30919 2.32553 9.00594L7.1268 12.7294C8.25689 9.33255 11.4251 6.80454 15.1681 6.80454Z" fill="#EA4335"/>
</svg>
